<svg width="59" height="59" viewBox="0 0 59 59" fill="none" xmlns="http://www.w3.org/2000/svg">
<path d="M29.5 0C13.2092 0 0 13.2092 0 29.5C0 45.7908 13.2092 59 29.5 59C45.7908 59 59 45.7908 59 29.5C59 13.2092 45.7908 0 29.5 0ZM42.1429 31.0804C42.1429 31.3701 41.9058 31.6071 41.6161 31.6071H31.6071V41.6161C31.6071 41.9058 31.3701 42.1429 31.0804 42.1429H27.9196C27.6299 42.1429 27.3929 41.9058 27.3929 41.6161V31.6071H17.3839C17.0942 31.6071 16.8571 31.3701 16.8571 31.0804V27.9196C16.8571 27.6299 17.0942 27.3929 17.3839 27.3929H27.3929V17.3839C27.3929 17.0942 27.6299 16.8571 27.9196 16.8571H31.0804C31.3701 16.8571 31.6071 17.0942 31.6071 17.3839V27.3929H41.6161C41.9058 27.3929 42.1429 27.6299 42.1429 27.9196V31.0804Z" fill="#FF5A72"/>
</svg>
