<svg width="34" height="34" viewBox="0 0 30 30" fill="none" xmlns="http://www.w3.org/2000/svg">
<path d="M14.6879 3.71494e-09C16.2989 -5.14215e-05 17.8472 0.5338 19.0071 1.48929C20.1671 2.44479 20.8483 3.74747 20.9076 5.1234L20.9116 5.32L27.6332 5.31915C28.0828 5.31932 28.5149 5.46801 28.8392 5.73414C29.1636 6.00027 29.355 6.36324 29.3735 6.74718C29.392 7.13112 29.2362 7.50633 28.9386 7.79436C28.641 8.0824 28.2246 8.26097 27.7765 8.29277L27.6332 8.29787H26.4711L24.8509 26.6553C24.7706 27.5649 24.2911 28.4149 23.5085 29.0352C22.7259 29.6554 21.698 30 20.6308 30H8.74502C7.67775 30 6.64987 29.6554 5.8673 29.0352C5.08472 28.4149 4.60523 27.5649 4.52487 26.6553L2.90372 8.29787H1.74263C1.30513 8.29784 0.883653 8.15717 0.561916 7.90379C0.240179 7.65041 0.0417242 7.30288 0.0059743 6.93021L0 6.80851C3.69107e-05 6.4346 0.164635 6.07437 0.461098 5.7994C0.757561 5.52442 1.1642 5.35481 1.60023 5.32426L1.74263 5.31915H8.46421C8.46421 2.51234 11.0085 0.212766 14.2338 0.0136168L14.4599 0.00340442L14.6879 3.71494e-09ZM18.4221 11.0638C18.1139 11.0637 17.8167 11.1613 17.5879 11.3377C17.359 11.5141 17.2149 11.7567 17.1833 12.0187L17.1774 12.1277V22.3404L17.1833 22.4494C17.2136 22.7122 17.3572 22.9561 17.5861 23.1334C17.8151 23.3108 18.1131 23.4091 18.4221 23.4091C18.7311 23.4091 19.0291 23.3108 19.2581 23.1334C19.4871 22.9561 19.6306 22.7122 19.6609 22.4494L19.6668 22.3404V12.1277L19.6609 12.0187C19.6293 11.7567 19.4852 11.5141 19.2563 11.3377C19.0275 11.1613 18.7303 11.0637 18.4221 11.0638V11.0638ZM10.9537 11.0638C10.6455 11.0637 10.3483 11.1613 10.1194 11.3377C9.89062 11.5141 9.74648 11.7567 9.71492 12.0187L9.70895 12.1277V22.3404L9.71492 22.4494C9.74516 22.7122 9.88873 22.9561 10.1177 23.1334C10.3467 23.3108 10.6446 23.4091 10.9537 23.4091C11.2627 23.4091 11.5607 23.3108 11.7897 23.1334C12.0186 22.9561 12.1622 22.7122 12.1924 22.4494L12.1984 22.3404V12.1277L12.1924 12.0187C12.1609 11.7567 12.0168 11.5141 11.7879 11.3377C11.5591 11.1613 11.2618 11.0637 10.9537 11.0638V11.0638ZM14.8552 2.98298L14.6879 2.97872C13.9906 2.97869 13.3195 3.20604 12.8115 3.61438C12.3036 4.02272 11.9971 4.58129 11.9545 5.17617L11.9495 5.32L17.4263 5.31915C17.4263 4.72316 17.1603 4.14961 16.6826 3.71549C16.2048 3.28137 15.5512 3.01939 14.8552 2.98298V2.98298Z" fill="#FF5A72"/>
</svg>
