<svg width="48" height="48" viewBox="0 0 35 35" fill="none" xmlns="http://www.w3.org/2000/svg">
<circle cx="17.5" cy="17.5" r="17.5" fill="#FF5A72"/>
<path d="M28.58 10.5467L24.6667 6.61339C24.4081 6.3561 24.0582 6.21167 23.6934 6.21167C23.3286 6.21167 22.9786 6.3561 22.72 6.61339L8.8467 20.4667L7.58004 25.9334C7.53634 26.1332 7.53784 26.3403 7.58442 26.5395C7.631 26.7387 7.72149 26.9249 7.84928 27.0847C7.97707 27.2444 8.13892 27.3736 8.32302 27.4627C8.50712 27.5519 8.70882 27.5988 8.91337 27.6001C9.00868 27.6097 9.10472 27.6097 9.20004 27.6001L14.7267 26.3334L28.58 12.4934C28.8373 12.2348 28.9818 11.8848 28.9818 11.5201C28.9818 11.1553 28.8373 10.8053 28.58 10.5467V10.5467ZM14.06 25.1334L8.88004 26.2201L10.06 21.1401L20.44 10.8001L24.44 14.8001L14.06 25.1334ZM25.3334 13.8334L21.3334 9.83339L23.6534 7.52673L27.5867 11.5267L25.3334 13.8334Z" fill="#F3F4F6"/>
</svg>
