<svg width="34" height="34" viewBox="0 0 29 29" fill="none" xmlns="http://www.w3.org/2000/svg">
<path d="M27.2842 6.70231L22.5555 1.94953C22.2431 1.63864 21.8202 1.46411 21.3794 1.46411C20.9386 1.46411 20.5158 1.63864 20.2033 1.94953L3.43971 18.689L1.90915 25.2945C1.85635 25.536 1.85816 25.7862 1.91445 26.0269C1.97074 26.2676 2.08008 26.4926 2.23449 26.6856C2.38889 26.8787 2.58447 27.0347 2.80692 27.1425C3.02938 27.2502 3.27309 27.3069 3.52026 27.3084C3.63543 27.32 3.75148 27.32 3.86665 27.3084L10.5447 25.7779L27.2842 9.05453C27.595 8.74206 27.7696 8.3192 27.7696 7.87842C27.7696 7.43763 27.595 7.01478 27.2842 6.70231ZM9.73915 24.3279L3.47998 25.6409L4.90582 19.5026L17.4483 7.00842L22.2817 11.8418L9.73915 24.3279ZM23.3611 10.6737L18.5278 5.84036L21.3311 3.05314L26.0839 7.88647L23.3611 10.6737Z" fill="#FF5A72"/>
</svg>
