<svg width="34" height="34" viewBox="0 0 34 34" fill="none" xmlns="http://www.w3.org/2000/svg">
<path d="M0.703676 16.7214L16.1517 0.37235C16.2629 0.254316 16.395 0.160673 16.5405 0.0967801C16.6859 0.0328875 16.8418 0 16.9993 0C17.1568 0 17.3127 0.0328875 17.4581 0.0967801C17.6035 0.160673 17.7357 0.254316 17.8469 0.37235L33.2949 16.7214C33.745 17.1981 34 17.8455 34 18.5208C34 19.9229 32.9236 21.0629 31.5997 21.0629H29.972V32.7289C29.972 33.432 29.4357 34 28.7719 34H19.3996V25.1025H15.1991V34H5.22669C4.56287 34 4.02656 33.432 4.02656 32.7289V21.0629H2.39887C1.7613 21.0629 1.14998 20.7968 0.699926 20.3162C-0.233931 19.3232 -0.233932 17.7145 0.703676 16.7214V16.7214Z" fill="#FF5A72"/>
</svg>
