<svg width="34" height="34" viewBox="0 0 34 34" fill="none" xmlns="http://www.w3.org/2000/svg">
<path d="M2.5733 16.7677L16.2497 3.10129C16.3481 3.00262 16.4651 2.92435 16.5939 2.87094C16.7226 2.81753 16.8607 2.79004 17.0001 2.79004C17.1395 2.79004 17.2775 2.81753 17.4062 2.87094C17.535 2.92435 17.652 3.00262 17.7504 3.10129L31.4268 16.7677C31.8252 17.1661 32.051 17.7073 32.051 18.2718C32.051 19.4439 31.0981 20.3968 29.926 20.3968H28.485V30.1486C28.485 30.7363 28.0102 31.2111 27.4225 31.2111H19.1251V23.7736H15.4063V31.2111H6.57759C5.9899 31.2111 5.51509 30.7363 5.51509 30.1486V20.3968H4.07408C3.50963 20.3968 2.96842 20.1743 2.56998 19.7726C1.74322 18.9425 1.74322 17.5978 2.5733 16.7677V16.7677Z" fill="#FF5A72"/>
</svg>
