<svg width="48" height="48" viewBox="0 0 48 48" fill="none" xmlns="http://www.w3.org/2000/svg">
<path d="M13.938 13.938C14.0773 13.7983 14.2429 13.6875 14.4251 13.6119C14.6073 13.5362 14.8027 13.4973 15 13.4973C15.1973 13.4973 15.3927 13.5362 15.5749 13.6119C15.7571 13.6875 15.9227 13.7983 16.062 13.938L24 21.879L31.938 13.938C32.0775 13.7985 32.243 13.6879 32.4252 13.6124C32.6075 13.5369 32.8028 13.4981 33 13.4981C33.1972 13.4981 33.3925 13.5369 33.5747 13.6124C33.757 13.6879 33.9225 13.7985 34.062 13.938C34.2015 14.0775 34.3121 14.243 34.3876 14.4252C34.463 14.6075 34.5019 14.8028 34.5019 15C34.5019 15.1972 34.463 15.3925 34.3876 15.5747C34.3121 15.757 34.2015 15.9225 34.062 16.062L26.121 24L34.062 31.938C34.2015 32.0775 34.3121 32.243 34.3876 32.4252C34.463 32.6075 34.5019 32.8028 34.5019 33C34.5019 33.1972 34.463 33.3925 34.3876 33.5747C34.3121 33.757 34.2015 33.9225 34.062 34.062C33.9225 34.2015 33.757 34.3121 33.5747 34.3876C33.3925 34.463 33.1972 34.5019 33 34.5019C32.8028 34.5019 32.6075 34.463 32.4252 34.3876C32.243 34.3121 32.0775 34.2015 31.938 34.062L24 26.121L16.062 34.062C15.9225 34.2015 15.757 34.3121 15.5747 34.3876C15.3925 34.463 15.1972 34.5019 15 34.5019C14.8028 34.5019 14.6075 34.463 14.4252 34.3876C14.243 34.3121 14.0775 34.2015 13.938 34.062C13.7985 33.9225 13.6879 33.757 13.6124 33.5747C13.5369 33.3925 13.4981 33.1972 13.4981 33C13.4981 32.8028 13.5369 32.6075 13.6124 32.4252C13.6879 32.243 13.7985 32.0775 13.938 31.938L21.879 24L13.938 16.062C13.7983 15.9227 13.6875 15.7571 13.6119 15.5749C13.5362 15.3927 13.4973 15.1973 13.4973 15C13.4973 14.8027 13.5362 14.6073 13.6119 14.4251C13.6875 14.2429 13.7983 14.0773 13.938 13.938Z" fill="#FF5A72"/>
</svg>
