<svg width="30" height="30" viewBox="0 0 48 48" fill="none" xmlns="http://www.w3.org/2000/svg">
<path d="M1.00705 1.00705C1.32547 0.687829 1.70373 0.434561 2.12018 0.261754C2.53662 0.0889478 2.98307 0 3.43395 0C3.88483 0 4.33128 0.0889478 4.74772 0.261754C5.16417 0.434561 5.54244 0.687829 5.86085 1.00705L24.0009 19.154L42.1409 1.00705C42.4597 0.688345 42.838 0.435534 43.2544 0.263052C43.6708 0.0905703 44.1171 0.0017947 44.5678 0.0017947C45.0186 0.0017947 45.4649 0.0905703 45.8813 0.263052C46.2977 0.435534 46.676 0.688345 46.9947 1.00705C47.3135 1.32576 47.5663 1.70411 47.7387 2.12052C47.9112 2.53693 48 2.98323 48 3.43395C48 3.88467 47.9112 4.33097 47.7387 4.74738C47.5663 5.16379 47.3135 5.54215 46.9947 5.86085L28.8478 24.0009L46.9947 42.1409C47.3135 42.4597 47.5663 42.838 47.7387 43.2544C47.9112 43.6708 48 44.1171 48 44.5678C48 45.0186 47.9112 45.4649 47.7387 45.8813C47.5663 46.2977 47.3135 46.676 46.9947 46.9947C46.676 47.3135 46.2977 47.5663 45.8813 47.7387C45.4649 47.9112 45.0186 48 44.5678 48C44.1171 48 43.6708 47.9112 43.2544 47.7387C42.838 47.5663 42.4597 47.3135 42.1409 46.9947L24.0009 28.8478L5.86085 46.9947C5.54215 47.3135 5.16379 47.5663 4.74738 47.7387C4.33097 47.9112 3.88467 48 3.43395 48C2.98323 48 2.53693 47.9112 2.12052 47.7387C1.70411 47.5663 1.32576 47.3135 1.00705 46.9947C0.688345 46.676 0.435534 46.2977 0.263052 45.8813C0.0905703 45.4649 0.0017947 45.0186 0.0017947 44.5678C0.0017947 44.1171 0.0905703 43.6708 0.263052 43.2544C0.435534 42.838 0.688345 42.4597 1.00705 42.1409L19.154 24.0009L1.00705 5.86085C0.687829 5.54244 0.434561 5.16417 0.261754 4.74772C0.0889478 4.33128 0 3.88483 0 3.43395C0 2.98307 0.0889478 2.53662 0.261754 2.12018C0.434561 1.70373 0.687829 1.32547 1.00705 1.00705Z" fill="#FF5A72"/>
</svg>
